<svg width="37" height="34" viewBox="0 0 37 34" fill="none" xmlns="http://www.w3.org/2000/svg">
<path d="M30.0556 19.9877C30.0556 18.9028 30.5025 17.7118 31.3639 16.8743C32.191 16.0701 33.3692 15.6249 34.7798 15.8724C34.0841 13.9742 31.8596 11.6873 27.261 11.5794C23.8569 11.4995 20.896 12.8353 18.3575 14.6698C15.8116 16.5096 13.7504 18.8056 12.1312 20.5875L6.01506 27.5837C8.75723 30.4404 12.5992 32.2164 16.8526 32.2164C21.9097 32.2164 25.1734 30.5293 27.1839 28.228C29.214 25.9043 30.0556 22.8519 30.0556 19.9877ZM31.8238 19.9877C31.8238 23.1761 30.8898 26.6838 28.5105 29.4073C26.1115 32.1531 22.3317 34 16.8526 34C12.1509 34 7.89914 32.0577 4.84231 28.9253L1.54712 32.6947C1.22418 33.0641 0.665572 33.0995 0.299366 32.7738C-0.0668384 32.448 -0.101917 31.8845 0.221017 31.5151L3.66103 27.58C1.36953 24.6766 0 20.9997 0 17C0 7.61116 7.54515 0 16.8526 0C21.466 0 25.6478 1.87119 28.6902 4.90013C29.0377 5.2461 29.0414 5.81075 28.6985 6.1613C28.3555 6.51184 27.7957 6.51551 27.4482 6.16958C24.7233 3.45667 20.9825 1.78361 16.8526 1.78361C8.52167 1.78361 1.76814 8.59622 1.76814 17C1.76814 20.4657 2.91686 23.6606 4.85094 26.2188L10.8195 19.3915L10.8252 19.3851C12.4251 17.6245 14.6068 15.1862 17.3277 13.2199C20.0574 11.2472 23.3891 9.70443 27.3021 9.79623C32.983 9.92951 35.945 13.0698 36.6407 15.9168C36.7952 16.549 36.5202 17.1018 36.1005 17.4143C35.7087 17.7061 35.1915 17.8014 34.7104 17.6797C33.7342 17.4329 33.0505 17.7117 32.591 18.1585C32.0963 18.6395 31.8238 19.3571 31.8238 19.9877Z" fill="white"/>
</svg>
